<?xml version="1.0" encoding="UTF-8"?>
<svg id="side-vines" xmlns="http://www.w3.org/2000/svg" version="1.1" viewBox="0 0 1366 1210">
  <!-- Generator: Adobe Illustrator 29.3.1, SVG Export Plug-In . SVG Version: 2.1.0 Build 151)  -->
  <defs>
    <style>
      .st0 {
        fill: #2e535f;
      }
    </style>
  </defs>
  <path class="st0" d="M174.25,252.02c-2.15.96-2.57,2.41-4.21,3.58-3.34,2.39-7.02.9-10.88,1.03-21.32.7-39.37,6.07-54.42,22-6.02,6.37-10.29,14.25-14.02,22.08-.4-7.1-4.07-14.46-11.55-15.83.96,4.4-2.04,9.24-1.59,13.66.87,8.52,8.16,11.35,7.15,21.26-.2,1.99-1.23,4.16-1.58,6.16,0,0-.99,4.57-1.49,9.85-.93,9.8.05,20.85.27,23.28-2.06-6.51-4.12-13.02-6.19-19.54-1.9-5.2-4.95-12.99-9.03-22.3-9.52-21.73-21.54-41.69-32.44-62.64-15.44-29.68,2.5-67.48,35.12-75,15.94-3.68,37,2.25,43.67,18.59,2.03,4.98-.95,5.03-2.9,7.62-1.47,1.94,2.6,4.97,3.64,6.48,16.24,23.72-11.01,47.9-35.04,38.67-10.34-3.97-17.35-13.9-14.97-25.15,1.46-6.89,7.77-15.22,15.65-12.89-2.5,1.27-4.24,2.35-5.39,4.98-3.81,8.72,7.22,15.3,11.59,4.15,3.09-7.91-5.45-13.23-12.18-10.71-19.53,7.33-13.96,35.16,5.01,42.1,30.35,11.1,54-20.94,43.1-49.35-19.9-51.93-94.2-27.81-96.84,22.04l-.2,10.73c-4.32-9.09-9.76-17.67-14.38-26.63-3.46-6.71-6.88-13.54-10.15-20.48v20.72c16.05,31.94,33.62,62.99,48.58,95.42l1.54,4.6c-9.77-11.23-21.29-20.38-34.21-27.68-3.7-2.09-10.02-4.76-15.91-7.78v4.34c8.82,4.36,17.21,9.76,22.83,18.1-6.02-1.97-10.75-.85-14.96,4.11.43,1.02,1.56.76,2.38,1.34,1.55,1.09,2.84,2.82,4.49,3.86,1.38.87,2.47.46,3.41,1.52-2.43,1.14-4.44,3.15-5.33,5.72,2.38-.16,4.99.94,7.22.31,3.63-1.02,5.37-3.45,9.74-3.67,9.71-.49,23.68,10.93,30.53,24.27,2.37,4.62,3.58,8.69,4.2,11.16.3,1.23.73,2.98,1.23,5.08,1.08,4.54,2.35,9.86,3.74,16.34,1.02,4.73.95,4.7,1.94,9.28.94,4.31,1.77,7.83,2.34,10.21l.11-.06c2.65,19.66,5.72,38.92,4.69,58.81-.24,4.62-.7,10.46-1.31,15.01-.13.94-.37,2.08-.89,2.87-1.31-17.42-4.73-34.18-11.54-50.37-5.87-13.96-13.18-25.18-22.73-36.83-3.31-4.03-8.36-7.31-8.75-12.77-.28-3.83,1.95-7.03.47-11.21-1.53-4.3-4.99-6.77-6.11-10.92-3.99,3.04-5.31,7.65-4.56,12.5l2.18,6.24c-7.67-6.3-16.27-11.87-25.32-16.42v3.43c1.35-.35,3.01-.17,5.58,1.18,40.45,21.21,64.58,69.92,65.8,114.42.52,18.76-1.95,39.79-10.46,56.65-.56-.18.16-10.53.13-11.84-.27-11.85-2.09-24.33-5.95-35.57-1.46-4.26-3.72-5.77-2.78-10.6.22-1.16.97-1.87,1.05-3.38.2-3.53-2.04-5.78-2.82-8.97-2.64,1.09-3.31,3.34-4.17,5.77l.36,4.55c-3.27-4.06-6.12-8.36-8.95-12.73-.98-2.66.89-3.27,1.33-4.8.15-.53,1.01-4.96.98-5.23-.49-4.75-6.7-5.89-8.72-8.66-.79-1.08.15-1.76-.52-2.72-.9.12-1.15,1.84-1.45,1.98-1.1.52-6.19-6.35-4.53,2.66l-2.9-.04c4.53,4.01-1.33,11.58,5,14.88,2.58,1.35,4.58,1.13,6.92,1.64,2.23.48,6.22,8.05,7.72,10.22-5.09-.75-11.05,1.08-15.12,4.25-6.43,4.99-4.64,15.18-13.63,18.18-1.82.61-4.2-.33-5.82-.07-5.82.94-6.18,8.51.1,9.33,3.93.51,7.3-1.61,9.93-4.33,7.51-7.81,1.37-17.76,13.98-24.01,18.76-9.31,24.87,21.06,25.76,33.74l-.18,4.51c-2.23-4.54-5.43-8.27-10.76-8.43-.56-.01-2.8-.3-2.76.68.03.76,2.82,8.4,3.4,9.29,2.67,4.03,8.64,4.36,10.18,8.52.75,2.02-1.3,15.68-1.9,18.53-2.55,12.1-11.37,23.27-19.52,32.52-10.6,12.03-21.46,21.49-35.28,27.21v12.46l17.88-10.43,11.08-8.97c7.1-4.97,12.79-15.1,20.97-17.68,4.76-1.5,9.73-.6,14.59-.57,1.6-.08,4.65-.45,7.92-2.3,3.51-1.98,5.46-4.64,6.33-6.01.75-1.1,1.87-2.47,3.4-3.86,1.26-1.16,2.67-2.16,4.23-2.91-8.87-7.09-18.4-6.24-27.4.29-.43.32-.94,1-1.24.22,1.38-1.75,2.97-3.79,4.15-5.67,11.07-17.66,18.7-39.42,25.17-59.19,5.19-15.86,8.96-41.48,26.95-48.3,3.24-1.23,8.99.94,10.7-3.2.86-2.09-.68-2.39-1.69-3.92,2.18-1.8,7.49-1.99,5.35-5.75-1.03-1.81-3.38-2.39-3.26-4.48.16-2.87,5.71-4.63,5.26-5.95-10.07-6.8-20.25-5.75-29.21,2.57l-6.41,7.81c1.77-7.6,5.09-15.47,10.93-20.88,5.56-5.15,14.11-7.29,15.95-15.92.21-.99.36-4.81-.04-5.49l-3.78-6.48c-.1-.18-1.1-.33-1.4-.02-7.35,6.33-18.34,10.73-22.11,20.16-.94,2.34-1.06,5-2.16,7.29l-3.82-20.93c-.31-15.25-.62-30.51-.94-45.76l1.47-11.86c3.4-14.4,8.59-29.56,18.59-40.81,1.44-1.63,2.89-3.23,4.93-4.12,5.24-2.28,10.24,2.81,16.6-.46,2.3-1.18,3.63-3.56,6.46-3.77-1.33-2.72-4.9-4.64-7.88-4.81l-3.85.08c9.21-4.65,19.33-7.72,29.56-8.86,4.83-.55,18.64.7,21.66-.32,3.23-1.09,5.18-2.99,5.69-6.37-.32-.53-5.48.17-6.38.57ZM134.34,48.06C108.36-4.24,39.76-14.01,0,23.09v14.6c.6-1.1,1.29-2.48,1.48-2.57.46-.23,3.39.98,4.39,1.03,4.36.23,7.35-3.71,11.45-4.61.58-1.5-3.28-3.6-3.16-3.95,3.45-1.99,7.47-5.79,11.18-7.1.96-.34,3.83.56,5.33.6,6,.15,10.04-2.58,15.8-3.09.79-.46-3.2-4.85-3.7-5.38-.2-.2-2.67-1.3-1.02-1.71,1.54-.37,4.41,0,6.31-.34,11.94-2.16,13.63-5.8,27.1-2.96,35.34,7.44,64.84,38.82,62.04,76.3-.99,13.3-8.1,28.32-20.87,34-5.49,2.44-7.86-.86-12.51-1.07-2.39-.11-4.67,1.34-7.21.98-1,.4-.42.47-.34,1.01.41,2.67,1.94,3.45,3.65,5.17-4.29.63-8.19,3.32-12.3,4.38-2.36.61-5.02-.86-2.59,2.84,3.17,4.85,10.37,5.85,15.36,3.51-.37,2.41-5.04,3.83-7.26,4.67-19.88,7.44-40.23,3.27-52.84-14.55-3.3-4.66-8.29-13.79-.3-16.25-2.18-2.46-4.64-4.48-7.89-2.63,1.1-5.57,5.23-11.21,6.22-16.64.7-3.81-.88-8.24-.23-11.76,2.51-13.51,21.11-20.61,32.55-13.87,7.79,4.59,11.19,12.47,4.37,19.56-1.28,1.34-3.06,2.36-4.27,3.65-.63.67-.97.68-.22,1.57,11.64-7.34,12.67-18.88.11-26.13-16.29-9.42-36.59,3.59-42.72,19.49-12.23,31.67,17.88,64.14,49.57,64.24,49.07.14,77.65-56.18,56.86-98.02Z"/>
  <path class="st0" d="M12.56,829.87c-2.47-5.1-8.27-7.06-12.56-5.86-3.03.85-5.3,3.28-5.12,7.31.15,3.48,2.89,4.16,5.12,2.6.42-.29.83-.67,1.19-1.13-.48-.28-.86-.19-1.19.03-.56.35-1.01,1.03-1.65,1.03-4.02-.04-3.32-6.72,1.65-8.44.69-.25,1.48-.4,2.34-.41,12.2-.22,13.65,17.49,1.73,22.31-1.38.56-2.74.9-4.07,1.06v1.7c.09,0,.19-.01.28-.02,9.48-1.01,16.67-11.14,12.28-20.18ZM99.99,795.21c-14.53-11.93-40.57-7.85-45.36,12.04-2.09,8.67,4.74,23.01,14.95,20.46,12.57-3.15-.36-24.62-10.72-16.55l-2.52,3.31c-1.39-14.85,11.98-24.26,25.86-22.47,22.22,2.85,31.16,28.32,19.57,46.31-29.45,45.69-94.35,3.96-72.86-46.96,2.77-6.57,7.33-10.32,11.11-16.05,13.46-20.42,18.93-43.99,19.96-68.14,2.2,5.38,4.3,12.42,8.98,16.27,1.2.99,5.4,4.16,5.11,1.07-.81-8.34.69-17.32-3.46-25.02,1.07.01,1.75.96,2.95,1.33,2.41.73,4.68-.26,6.31-2.05-3.75-3.08-4.28-9.18-8.98-11.58-2-1.02-4.5-1.39-6.55-2.34-9.59-4.45-26.18-31.56-33.98-40.93-8.57-10.3-18.92-19.03-30.36-26.02v5.64c15.16,9.45,26.73,26.91,29.93,44.14,4.35,23.44-5.96,58.82-29.93,68.37v4.96c5.68-2.35,10.92-6.05,15.13-10.87-2.83,8.59-1.81,18.43,7.17,22.64.66-5.83,4.46-9.89,4.26-15.98-.14-4.18-3.67-7.71-4.33-11.65-.95-5.65,1.36-6.73,3.11-11.28,9.31-24.18,9.99-50.13-3.77-72.58,19.69,19.13,32.04,47.83,32.17,75.36.17,37.45-20.17,75.23-53.74,90.89v1.95c3.47-1.65,6.98-3.23,10.06-5.12,6.41-3.94,13.42-9.24,18.03-15.13.9.94-.99,2.9-1.42,3.98-17.25,43.66,26.02,86.9,67.38,64.13,22.01-12.12,25.2-46.3,5.94-62.13ZM0,630.36v16.76c1.49-5.45,1.54-11.35,0-16.76ZM174.65,975.85c-2.27,5.71,6.91,7.91,4.43,1.81-1.07.27.17,1.51.03,1.86-.82,2.09-5.73-.54-3.09-4.15,3.05-4.17,11.01,2.08,6.33,7.44-2.92,3.36-8.4,2.56-11.97.8.23-.73,1.06-.23,1.79-.75,3.09-2.2,2.01-4.33-.48-6.35-5.05-4.08-13.42-4.55-18.33-.12-1.21,1.1-.98,2.28-2.96,2.81-2.64.71-9.16-2.01-12.87-2.28-12.5-.89-24.7,8.32-35.79,12.87.48-2.12,2.33-3.52,3.24-5.48,2.1-4.54,2.64-9.72-.11-14.06-4.96,4.79-11.28,6.22-13.85,13.41-1.19,3.32-1.16,10.67-4.73,12.77-1.17.69-8.45,1.78-10.24,1.95-11.41,1.1-13.76-.39-23.87-4.73-17.29-7.4-34.76-14.28-52.18-21.27v11.78c24.61,15.76,31.87,51.25,13.8,75.63-3.51,4.74-8.33,8.96-13.8,12.03v4.35c25.73-13.82,38.36-53.61,17.58-80.76l-6.81-8.29c9.18,4.1,18.89,7.11,28.22,10.93,46.19,18.9,94.73,42.92,115.37,91.19,5.41,12.66,3.49,19.26,4.11,32.17.04.97.89,3.96.76,4.25-.2.47-3.22,1.45-4.01,2.06-3.47,2.66-3.18,7.6-5.72,10.94.54,1.52,4.83.61,4.97.96-1.34,3.75-1.93,9.24-3.91,12.65-.51.89-3.27,2.06-4.43,3.01-4.67,3.77-5.97,8.48-10.02,12.6-.31.86,5.58,1.61,6.3,1.69.29.03,2.88-.74,1.88.64-.92,1.28-3.35,2.86-4.57,4.36-7.69,9.38-6.61,13.25-18.7,19.84-31.71,17.27-74.52,12.53-96.72-17.8-7.87-10.76-12.21-26.81-6.18-39.41,2.6-5.42,6.54-4.45,10.22-7.31,1.88-1.46,2.68-4.05,4.84-5.42.5-.95.02-.63-.4-.99-2.04-1.77-3.71-1.37-6.13-1.57,2.86-3.26,4.08-7.84,6.52-11.31,1.4-2,4.38-2.6.13-3.85-5.56-1.63-11.69,2.29-13.97,7.31-1.28-2.08,1.35-6.19,2.5-8.27,10.29-18.57,28.49-28.6,49.64-23.22,5.54,1.41,15.25,5.12,10.77,12.17,3.26.46,6.45.4,7.71-3.12,2.78,4.96,3.3,11.93,6.07,16.7,1.95,3.35,6.02,5.7,7.8,8.8,6.86,11.91-2.68,29.38-15.76,31.67-8.91,1.56-16.61-2.22-16.02-12.05.11-1.84.8-3.78.88-5.54.05-.92.3-1.14-.84-1.34-4.1,13.14,2.6,22.58,16.87,19.96,18.5-3.41,25.5-26.48,19.85-42.56-11.24-32.03-55.23-37.2-79.4-16.71-37.43,31.74-22.63,93.13,20.35,111.48,61.97,26.46,130.37-26.99,117.33-94.19-9.56-49.24-47.04-78.7-88.66-101.71-1.31-.72-7.14-2.86-7.22-3.98,9.22-.37,18.2-2.98,26.66-6.55,5.14-2.17,15.57-8.69,20.11-9.58,4.92-.97,7.4,3.33,12.15,4.05,3.34.5,6.71-1.86,9.99-1.69-.26-4.61-5.3-6.26-9.06-7.4l5.87-.44c3.04.68,7.25.55,9.79,2.51,2.22,1.71.68,3.35.71,5.54.06,4.11,1.09,7.25,4.04,10.22,2.35,2.37,8.23,5.57,11.46,3.94,2.51-1.28.18-4.66.93-4.99,5.48,1.45,9.86,10.99,3.49,13.76-6.87,3-10.45-9.42-1.39-6.14.23,1.81-1.71,1.66-1.69,1.79.12.78.33.98,1.1.66,2.47-1.02,1.18-4.21-1.28-4.36-6.29-.41-6.01,11.04,2.52,9.37,5.32-1.05,6.44-7.99,3.56-12.05l-5.18-4.75c1.53,1.22,8.36-.65,8.96-1.9.39-.81-.37-3.31-.72-4.24l-2.86-4.7c5.07,2.35,12.46,1.86,14.25-4.3,1.93-6.64-7.47-11.32-9.96-5.05ZM45.84,924.26c-12.79,3.56-25.02,9.15-37.75,12.88-2.66.78-5.36,1.52-8.09,2.16v4.04c7.95-2.11,16.68-4.06,21.32-2.35,4.06,1.5,5.71,5.9,10.48,6.26,2.17.16-.96-4.64-.6-4.9,2.8.19,5.05-1.8,7.7-2.35.28-.72-2.9-3.65-3.72-4.09-1.55-.83-2.95-.66-4.42-1.4,19.85-12.33,41.86-14.89,64.51-9.48,1.76.43,4.2,2.28,5.75.96-18.16-7.14-36.71-6.88-55.18-1.73ZM.87,871.64c-.29.16-.58.31-.87.47v4.24c.84.32,1.69.62,2.66.63.94.01,6.1-2.08,5.83-2.96-2.4-1.99-4.38-3.18-7.62-2.38Z"/>
  <path class="st0" d="M1318.63,1192.82c-2.57-2.13-8.83-7.75-10.24-10.43-.2-.38-.92-4.26-.89-4.52.04-.41,3.27-3.87,3.99-4.98,3.32-5.16,3.18-11.9.93-17.47-2.8-6.96-11.73-15.48-14.38-3.72-4.13-5.03-6.24-13.64-.39-18.29,7.37-5.86,16.47,4.71,9.8,9.53-4.4,3.18-8.71-3.67-5.52-4.7l2.15.96c-.9-3.31-4.84-.47-4.31,1.49,1.51,5.55,8.44,5.27,10.67-.07,2.52-6.04-5.59-12.22-11.04-9.68-9.49,4.43-7.78,14.5-3.03,21.88l-5.97-3.51c-1.37-.17-7-1.74-7.82-.82-.42.47-1.8,5.28-1.87,6.12l.87,7.55c-5.08-6.83-14.72-11.92-21.7-4.42-5.16,5.54,1.1,16.88,8.8,12.48,5.35-3.06,1.72-11.74-2.73-8.45-1.44,1.07-1.24,3.32.52,2.13l-.63-1.39c6.1-1.9,6.01,7.13-.37,7.39-7.02.28-8.22-9.95-2.49-13.17,6.67-3.76,13.72,1.23,17.21,6.97-5.16-.69-8.76.28-7.33,6.31,1.97,8.31,12.55,15.72,21.12,14.39,1.7-.26,5.42-1.86,6.48-1.84.27.01,4.76,1.98,4.99,2.14,1.29.86,2.82,3.33,4.15,4.55,2.92,2.69,6.6,5.34,8.8,8.41-7.15-2.09-14.19-1.12-19.2,4.89-.34.41-1.57,2.14-1.68,2.48-.46,1.41,1.52.61,2.69.92,1.97.53,3.73,1.35,5.53,2.05,2.09.82,4.22,1.48,6.77,1.35,2.1-.1,3.74-.66,5.24-1.35,2.24-1.02,4.16-2.36,6.79-3.06,5.05-1.34,10.16,1.38,15,3.06h26.46v-1.78c-16.54,2.76-33.33-1.8-47.37-13.4ZM1355.47,1179.48c-1.23.18-3.3-.78-4.06.5,7.6,2.16,12.91-2.61,14.59-8.78.74-2.71.78-5.69,0-8.47-.54-1.99-1.51-3.88-2.94-5.5-12.89-14.61-35.15-2.1-33.74,16.27,1.31,17.14,19.27,25.37,36.68,26.41v-3.71c-14.2-.22-29.19-5.16-33.4-18.82-5.4-17.55,16.41-33.51,29.23-19.32,5.84,6.46,3.28,19.98-6.36,21.42ZM1339.91,931.34c-.74-.57-6.13-1.99-6.44-1.11.73,3.03,1.6,5.17,4.67,6.47,9.41,1.38,18.74,3.14,27.86,5.73v-1.4c-1.33-.39-2.66-.74-4-1.08-3.84-.97-16.76-2.44-18.91-4.58-1.25-1.24-1.73-2.91-3.18-4.03ZM1366,871.72c-1.14-.91-2.06-1.85-2.69-2.81-2.36-3.64-1.04-8.14-4.65-11.29-1.64-1.43-2,4.29-2.45,4.28-2.13-1.83-5.12-1.58-7.57-2.73-.66.42.14,4.66.53,5.51.74,1.59,1.96,2.3,2.69,3.76-23.28-2.01-42.43-13.14-57.33-31.04-1.16-1.4-2-4.34-4.03-4.21,10.26,16.59,25.28,27.49,43.15,34.44,10.53,4.09,21.62,6.76,32.35,10.33v-6.24ZM1261.4,749.16c5.24-3.21-.8-10.47-2.47-4.1,1.02.42.77-1.31,1.1-1.51,1.91-1.18,4.26,3.86-.01,5.17-4.95,1.52-7.57-8.26-.62-9.75,4.36-.93,8.26,2.99,10.07,6.53-.62.45-.99-.45-1.88-.47-3.8-.08-4.21,2.27-3.42,5.37,1.59,6.3,8.02,11.69,14.6,11.08,1.63-.16,2.15-1.24,4.06-.48,2.54,1.01,6.12,7.1,8.94,9.54,9.47,8.19,24.76,8.12,36.37,11.12-1.66,1.42-3.98,1.43-5.88,2.46-4.4,2.37-7.93,6.2-8.34,11.32,6.84-.87,12.76,1.77,19.13-2.45,2.94-1.94,7.32-7.84,11.44-7.39,1.35.15,7.83,3.64,9.37,4.57,6.82,4.15,9.36,6.67,12.14,11.04v-19.42c-17.76-34.66-29.93-72.17-20.43-111.28,3.24-13.37,8.73-17.51,15.97-28.22.54-.81,1.66-3.71,1.93-3.86.27-.15,1.42.14,2.53.41v-16.98c-7.77,7.01-14.44,15.72-19.48,26.14-21.84,45.15-9.47,91.19,10.08,134.55.61,1.36,4,6.57,3.4,7.51-7.61-5.22-16.36-8.51-25.28-10.72-5.41-1.35-17.67-2.37-21.84-4.38-4.52-2.17-3.93-7.1-7.31-10.52-2.37-2.4-6.48-2.53-9.01-4.63-2.55,3.85.5,8.19,2.83,11.36l-4.96-3.17c-2.03-2.37-5.49-4.78-6.35-7.87-.74-2.7,1.47-3.09,2.76-4.87,2.41-3.32,3.47-6.45,2.88-10.6-.46-3.3-3.25-9.39-6.82-10.01-2.77-.48-2.93,3.62-3.73,3.44-3.51-4.45-1.31-14.71,5.45-13.12,7.29,1.72,2.72,13.8-2.57,5.76.91-1.59,2.37-.32,2.42-.43.38-.7.34-.98-.48-1.19-2.58-.66-3.46,2.67-1.59,4.27,4.8,4.09,11.43-5.25,3.6-9.01-4.88-2.35-9.94,2.53-10.07,7.5l1.31,6.92c-.5-1.9-7.09-4.49-8.31-3.85-.8.41-1.7,2.87-1.97,3.82l-.52,5.48c-2.66-4.92-8.86-8.95-13.99-5.09-5.53,4.16-.8,13.54,4.95,10.01ZM1269.51,1197.09c-4.81-2.41-8.18,2.39-9.39,6.63-2.47-7.23-4.82-15.98-12.18-19.71-9.77-4.96-22.61-5.31-32.07-10.98-20.31-12.17-30.1-43.1-5.82-56.77,18.45-10.39,40.9,10.02,29.56,27.07-5.2,7.83-17.21,10.16-22.98,1.91-2.98-4.25-2.04-11.99,4.1-11.79l3.47,3.44c-1.8-9.24-10.73-4.3-10.83,3.1-.13,10.09,12.88,15.11,20.94,10.61,17.07-9.54,11.51-33.38-6.12-38.7-15.48-4.67-31.89,7.49-35.08,22.68l-.8,5.97c-8.72-17.25-8.1-40.71.4-57.92,11.2-22.67,43.63-46.22,69.38-35.29,16.66,7.08,24.61,26.6,13.28,41.74-4.65,6.21-12.62,10.9-19.99,6.36,9.9-3.7-1.2-17.63-8.48-11.21-4.52,3.99,3.87,14.09,7.64,16.4,16.43,10.05,32.66-10,32.78-25.78.2-24.11-23.5-38.07-45.35-33.37,7.41-5.19,12.49-13.68,7.82-22.43-4.02,4.27-9.5,5.25-12.98,10.25-2.4,3.43-1.69,8.37-3.51,11.92-2.62,5.1-5.12,4.57-9.25,7.16-21.94,13.8-38.03,34.17-40.45,60.38-4.32-27.1,2.99-57.48,19.37-79.6,26.63-35.95,76.97-54.75,118.17-33.2,2.51,1.32,14.71,8.86,15.54,10.65.15.33-.68,1.35-.78,2.09-1.72,12.48,6.39,11.38,12.94,16.91,6.09,5.15,1.05,7.79,2.84,12.12.97,2.37,3.28,4.7,4.57,7.02,8.83,15.89,7.36,35.92-4.21,49.97l-11.89,11.19,7.67-5.17c.68-.45,3.6-3.67,4.35-4.55,23.54-27.58,10.74-73.5-16.6-93.86.72-.28,1.19.42,2.24.46,14.46.6,25.35-14.57,15.68-26.7-5.27-6.6-16.1-6.44-20.32,1.1-2.81,5.01-.02,12.96,6.36,13.16,5.76.17,7.35-6.87,1.29-6.62.07,1.14,1.46.76,2.2,1.83,1.95,2.81-4,4.89-6.65,2.52-5.77-5.15-1.95-14.11,5.46-15,15.6-1.87,19.08,21.53,2.29,26.94-10.92,3.52-19.7-6.3-29.54-9.18l7.68-2.47c13.12-6.16,16.86-26.05,3.42-34.03-8.19-4.88-20.02-1.07-21.92,8.8-1.82,9.49,9.56,17.48,15.04,9.43,2.33-3.42-.65-5.87-4.18-4.96.57,1.34,2.08.23,2.9.86,3.66,2.77-2.79,8.8-8.49,4.69-9.9-7.13-.45-22.18,11.98-18.89,12.11,3.19,14.24,17.49,7.38,26.66-9.85,13.18-24.92,5.31-37.9,4.13-7.49-.68-16.28-.63-23.5,1.32-.16-1.29,2.53-1.73,3.52-2.33,39.96-24.64,31.21-85.18-15.55-91.71-24.88-3.48-47.91,21.98-41.96,46.19,4.48,18.26,27.79,30.59,43.53,17.53,6.87-5.7,9.99-21.26.28-25.34-11.95-5.01-14.45,19.93-1.33,19.67l4-1.14c-7.77,12.73-24.12,12.25-34.17,2.51-16.08-15.6-7.98-41.35,12.08-48.81,50.94-18.95,77.92,53.34,30.21,81.25-6.15,3.59-12.05,3.87-18.51,6.2-23,8.28-41.5,23.89-56.8,42.61,1.47-5.63,4-12.52,2.56-18.41-.37-1.52-1.83-6.57-3.44-3.92-4.36,7.17-10.93,13.45-12.22,22.11-.85-.65-.83-1.82-1.57-2.83-1.49-2.04-3.9-2.6-6.28-2.14,1.15,4.71-2.07,9.91.25,14.65.99,2.01,2.78,3.81,3.84,5.8,5.02,9.3,2.07,40.95,2.71,53.12,1.62,31.26,16.12,61.44,37.87,83.81,8.87,9.12,19.11,16.73,30.19,22.8h24.95c-2.94-2.89-3.78-6.21-1.64-10.91Z"/>
  <path class="st0" d="M1354.25,16.59c3.79-2.69,7.72-4.91,11.75-6.65V-.55c-1.53.8-3.05,1.62-4.57,2.47l-10.42,6.37-24.03,19.59-9.56,10.57c-6.24,6.01-10.29,16.9-17.97,20.72-4.47,2.23-9.52,2.11-14.32,2.83-1.57.33-4.53,1.17-7.47,3.5-3.16,2.5-4.67,5.44-5.32,6.92-.57,1.21-1.46,2.73-2.76,4.35-1.07,1.34-2.3,2.54-3.73,3.52,9.87,5.64,19.15,3.32,27.02-4.54.38-.37.78-1.12,1.2-.41-1.1,1.95-2.35,4.21-3.22,6.25-8.19,19.17-12.36,41.85-15.68,62.38-2.66,16.47-2.42,42.37-19.13,51.9-3.01,1.71-9.03.46-10.07,4.83-.53,2.19,1.05,2.24,2.28,3.61-1.88,2.1-7.09,3.12-4.4,6.5,1.3,1.63,3.71,1.84,3.92,3.93.29,2.85-4.92,5.45-4.27,6.68,11.01,5.16,20.9,2.55,28.45-7.06l5.13-8.72c-.58,7.79-2.63,16.07-7.56,22.33-4.7,5.95-12.81,9.39-13.28,18.19-.06,1.02.38,4.81.88,5.43l4.74,5.81c.14.16,1.14.16,1.39-.2,6.28-7.39,16.45-13.44,18.72-23.34.56-2.46.27-5.11,1-7.54l7.02,20.08c2.68,15.02,5.35,30.04,8.03,45.06l.39,11.95c-1.13,14.75-3.9,30.53-12.03,43.2-1.17,1.83-2.35,3.64-4.23,4.83-4.82,3.07-10.55-1.18-16.33,3.03-2.08,1.52-3.03,4.09-5.79,4.73,1.73,2.48,5.56,3.82,8.52,3.53l3.8-.67c-8.38,6.02-17.9,10.62-27.83,13.34-4.69,1.28-18.52,2.2-21.34,3.67-3.02,1.58-4.66,3.76-4.64,7.18.4.47,5.39-1.02,6.21-1.55,1.98-1.29,2.17-2.79,3.61-4.2,2.92-2.87,6.79-1.97,10.58-2.7,20.96-4,37.95-12.11,50.35-30.19,4.96-7.22,7.95-15.67,10.43-23.98,1.49,6.95,6.26,13.65,13.87,13.84-1.64-4.19.57-9.44-.56-13.74-2.18-8.28-9.82-9.94-10.36-19.89-.11-1.99.57-4.3.61-6.33,0,0,.26-4.67-.06-9.96-.6-9.83-3.29-20.59-3.89-22.96,3.05,6.11,6.1,12.23,9.15,18.34,2.69,4.84,6.91,12.07,12.38,20.63,12.79,19.99,27.76,37.85,41.78,56.85,1.24,1.68,2.36,3.42,3.36,5.2v-17.58c-8.71-11.86-17.29-23.82-25.46-36.07l-2.24-4.31c8.5,7.15,17.77,12.99,27.7,17.66v-25.34c-2.48,1.55-3.99,3.59-7.63,4.36-9.52,1.99-25.09-7.12-33.93-19.24-3.05-4.19-4.88-8.02-5.88-10.37-.49-1.17-1.18-2.83-2-4.82-1.77-4.32-3.85-9.39-6.23-15.56-1.74-4.52-1.67-4.51-3.37-8.88-1.59-4.1-2.96-7.46-3.89-9.72l-.1.08c-5.66-19.01-11.68-37.56-13.76-57.37-.48-4.6-.94-10.44-1.03-15.04-.03-.94.04-2.11.43-2.97,4,17.01,9.98,33.04,19.22,47.98,7.97,12.87,16.92,22.82,28.17,32.85,3.89,3.47,9.39,5.93,10.63,11.25.86,3.75-.84,7.25,1.27,11.15,2.18,4.01,5.99,5.91,7.74,9.85,3.47-3.63,4.05-8.39,2.55-13.07l-3.12-5.82c3.52,2.07,7.17,3.99,10.93,5.75v-1.35c-37.84-17.75-64.91-58.44-72.36-98.61-3.42-18.46-4.25-39.62,1.54-57.59.59.08,1.48,10.42,1.71,11.72,2.11,11.66,5.85,23.7,11.4,34.21,2.11,3.98,4.58,5.12,4.4,10.04-.04,1.18-.67,2-.52,3.5.35,3.52,2.91,5.39,4.18,8.42,2.44-1.48,2.75-3.81,3.23-6.34l-1.07-4.45c3.86,3.51,7.35,7.31,10.82,11.2,1.38,2.47-.37,3.36-.57,4.94-.07.55-.22,5.06-.16,5.32,1.22,4.62,7.54,4.78,9.96,7.2.95.95.13,1.77.94,2.61.87-.26.85-2,1.12-2.18,1.01-.69,7.11,5.31,4.06-3.33l2.88-.42c-5.1-3.26-.48-11.64-7.25-13.92-2.76-.93-4.7-.4-7.09-.54-2.28-.13-7.4-7-9.22-8.91,5.15-.05,10.75-2.77,14.29-6.53,5.57-5.93,2.22-15.72,10.63-20.08,1.71-.89,4.2-.33,5.77-.84,5.6-1.83,4.78-9.37-1.55-9.2-3.96.11-6.97,2.72-9.13,5.82-6.22,8.88,1.4,17.75-10.09,25.89-17.09,12.11-27.84-16.94-30.69-29.33l-.52-4.49c2.91,4.15,6.65,7.33,11.94,6.66.55-.07,2.81-.13,2.62-1.09-.15-.76-4.09-7.87-4.81-8.66-3.25-3.57-9.2-2.96-11.37-6.84-1.05-1.87-1.15-15.68-1-18.59.65-12.36,7.62-24.76,14.23-35.16,11.59-18.21,24.36-31.89,45.25-39.25,1.99-.7,4.15-1.32,6.43-1.84v-4.15c-5.09.91-9.78,2.45-13.57,4.51-.55-.67,1.35-1.81,1.82-2.14ZM1339.59,439.95c-15.18,6.11-36.91,3.52-46.03-11.58-2.78-4.61.15-5.12,1.68-7.99,1.15-2.14-3.34-4.5-4.6-5.83-19.72-20.91,3.44-49.02,28.61-43.64,10.83,2.32,19.3,11.04,18.69,22.53-.37,7.03-5.31,16.23-13.46,15.15,2.27-1.64,3.83-2.98,4.55-5.76,2.42-9.2-9.5-13.99-12.08-2.29-1.83,8.29,7.43,12.22,13.68,8.68,18.17-10.26,8.34-36.9-11.48-40.81-31.71-6.25-50.09,29.07-34.92,55.45,20.04,34.85,62,26.03,81.77-.3v-7.62c-5.56,10.5-14.6,19.25-26.41,24.01ZM1336.8,474.33c-48.5,7.48-67.99,67.55-40.96,105.66,17.28,24.36,43.84,36,70.16,35.83v-5.04c-1.57.09-3.35.09-5.42-.02-36.06-1.86-70.08-28.29-73.13-65.74-1.09-13.29,3.61-29.24,15.34-36.83,5.05-3.26,7.9-.37,12.53-.88,2.37-.27,4.4-2.06,6.97-2.09.92-.55.34-.53.17-1.06-.81-2.57-2.44-3.1-4.4-4.54,4.14-1.28,7.57-4.55,11.47-6.23,2.23-.97,5.09.07,2.12-3.21-3.89-4.3-11.16-4.17-15.73-1.08,0-2.44,4.39-4.57,6.45-5.74,14.4-8.13,30.17-9.35,43.63-2.09v-2.72c-9.13-4.06-19.34-5.74-29.2-4.22ZM1356.34,554.65c-8.41-3.33-12.99-10.58-7.35-18.65,1.05-1.51,2.66-2.81,3.65-4.26.52-.77.85-.82-.02-1.59-10.37,9.06-9.59,20.61,3.94,25.84,3.16,1.22,6.33,1.7,9.44,1.56v-1.82c-3.3.43-6.63.12-9.66-1.08Z"/>
</svg>