<?xml version="1.0" encoding="UTF-8"?>
<svg id="Layer_1" xmlns="http://www.w3.org/2000/svg" version="1.1" viewBox="0 0 1493 500">
  <!-- Generator: Adobe Illustrator 29.3.0, SVG Export Plug-In . SVG Version: 2.1.0 Build 146)  -->
  <defs>
    <style>
      .st0 {
        fill: #2e535f;
      }

      .st1 {
        fill: #e5ca9a;
      }
    </style>
  </defs>
  <rect class="st0" x="0" width="1493" height="500"/>
  <path class="st1" d="M0,416.42v20.03c.42-1.04.8-2.27,1.13-3.76,1.31-5.94.77-11.35-1.13-16.27ZM26.73,394.64c-1.87.23-6.5,32.48-9.37,36.56-.16,11.07,9.45,11.79,9.71,12.59.34,1.03-3.43,18.77-4.14,21.12-2.41,8.04-8.78,22.79-17.08,25.76-.51.18-2.75-1.44-5.85-3.83v7.14c1.04.14,2.11.42,3.19,1.15.92.63,2.91,2.48,5.31,4.87h5.49c-1.92-2.1-4.19-4.17-7.27-5.83,12.93-8.16,18.09-19.77,21.04-34.21.92-4.45.42-13.3,1.45-15.95,1.7-4.41,5.2-6.77,6.46-12.54,1.2-5.49-2.71-37.6-8.94-36.83ZM79.93,470.17c-6.02,2.33-32.03,15.46-34.7,19.74-2.54,4.06-2.02,7.63-1.18,10.09h23.75c5.85-8.74,7.57-22.19,15.88-29.42-2.33-2.62-2.16-1.03-3.75-.41ZM208.25,412.87c-8.99,1.12-22.66-.75-27.41,9.4-1.79,3.81-.26,10.66-3.45,13.84-.99.97-13.26,6.07-15.49,6.76-2.97.91-6.72-.94-10.56,1.4-5.32,3.24-10.81,12.41-18.02,15.36l5.27-27.53c1.23-4.79,3.71-17.1,6.81-20.02,1.69-1.59,5.16-1.96,7.56-4.36,10.31-10.31,4.55-21.07,2.13-32.69-.94-4.51,1.53-11.65-3.91-11.96-6.18,10.45-18.56,31.99-14.17,44.13,1.23,3.42,4.2,5.35,4.4,6.12.43,1.7-10.2,28.52-11.2,33.19-2.17-6.14-4.76-12.85-8.95-17.97-5.4-6.6-7.53-8.57-12.48-15.86-7.84-11.55-13.83-6.61-23.76-3.58-.46.14-10.89-.7-6.74,3.21,5.39,5.07,13.95,10.77,21.54,10.71,3.96-.03,7.92-3.02,10.41-1.13,6.5,4.94,15.93,19.54,17.85,27.58,3.85,16.2-5.27,19.55-11.84,32.24-3.52,6.81-3.87,12.6-4.75,18.29h9.33c.94-1.83,1.86-3.77,2.79-5.82,8.98-19.91,1.11-25.83,23.04-39.79,8.96-5.7,13.53-9.81,22.67-3.04,3.41,2.54,16.14,15.62,18.35,18.93.82,1.23-4.43,24.83,7.07,26.88,2.76-.32,4.36-18.71,1.93-21.81-2.26-2.89-5.65-3.12-7.8-5.2-6.86-6.63-11.38-20.87-23.23-25.01,3.29-.81,9.6-5.24,12.22-5.56,3.22-.39,7.47,3.11,12.05,3.36,3.12.17,12.25-3.16,13.83-5.33l18.54-25.44c-4.32-4.28-8.94.07-14.03.7ZM303.5,438.91c-9.08,4.06-6.42,10.24-9.58,13-1.86,1.62-6.28,1.58-8.89,2.94-4.76,2.49-8.69,5.66-13.43,7.73-2.28-14.46-5.96-27.04.79-40.98,4.15-8.59,3.02-2.28,8.94-3.68,10.88-2.56,16.24-16.04,14.83-26.24-.62-4.48-7.14-20.02-12.35-18-1.1.43-10.47,17.87-11.44,20.68-2.8,8.2,1.28,18.03.71,19.8-1.47,4.63-6.46,8.94-8.04,15.93-2.55,11.35,4.76,24.88,2.49,36.28-7.15,8.19-12.38,19.17-19.4,27.13-2.21,2.52-5.11,4.32-7.65,6.5h9.38c.65-.95,1.3-1.9,1.96-2.84,4-2.22,23.65-2.07,27.38.19.83.5,1.04,1.45,1.1,2.65h40.73c.46-.63.28-1.32-.93-2.07-5.38-3.35-18.41-11.24-23.97-12.42-9.9-2.09-9.81,6.02-14.46,8.03-1.71.74-16.03-2.69-20.33-2.67-3.08.01-4.53,2.01-6.62,1.1,2.4-6.04,8.91-7.09,12.36-11.79,2.71-3.68,2.48-8.19,5.41-11.55,1.8-2.06,18.96-13.92,20.41-13.93,1.64-.01,6.8,11.45,18.62,8.69,1.4-.32,8.29-3.58,8.77-4.24l15.52-21.29c.19-.25,2.81-.15,3.33-2.1-.16-1.79-33.26,2.08-35.64,3.15ZM411.03,492.08c-10.14-11.3-6.47-27.35-21.74-33.87-5.57-2.38-30.08,5.41-29.5,8.9,8.04,6.02,17.88,13.01,27.96,14.65,3.2.51,12.06-1.61,13.13-.74,2.99,2.42,7.65,12.03,8.65,18.98h2.58c.03-2.97.3-6.61-1.08-7.92ZM478.46,471.03c-3.44,6.34-5.96,23.66-11.5,27.69l-21.27-1.61c3.13-8.15,8.01-15.12,3.06-23.49-1.15-1.96-4.15-4.01-4.51-5.07-.28-.86,3.97-10.43,3.97-14.78-.01-9.68-9.13-22.39-19.2-22.96-1.3-.07-23.6,6.12-25.12,6.86-1.16.56-3.13,2.11-3.15,3.1-.1,3.96,22.79,24.71,27.8,27.11,7.74,3.71,19.83-1.56,18.82,15.36-.92,15.28-8.4,12.35-18.18,15.49-.67.22-1.96.69-3.54,1.27h44.21c11.16-17.77,11.02-40.09,34.06-49.19-9.72-3.67-21.41,12.76-25.45,20.22ZM522.95,471.93c-1.97,8.45-12.44,19.17-14.18,28.07h20.7c2.72-8.74,1.26-18.57-6.52-28.07Z"/>
  <path class="st1" d="M547.75,422.97l-11.83,1.38c-8.79,3.37-26.41,6.26-31.83,14.5-5.59,8.49,5.49,18.26,13.8,17.45,16.42-1.6,20.6-22.97,29.86-33.34Z"/>
  <path class="st1" d="M995.32,478.68c.11-1.2.18-2.41.18-3.62,5.18-1.99,13.7-2.16,16.42-3.48,7.95-3.86,6.17-7.05,19.37-8.36,13.17-1.3,13.09-2.61,24.37-4.77,41.75-8.01,122.26,18.69,148.09-19.56.56-.83,4.6-16.08,7.07-8.59,1.46,4.41-8.73,16.31-12.93,19.53-27.83,21.32-83.41,10.57-121.45,10.52-4.26,0-30.53.37-29.14,4.67,10.49,3.76,5.68,11.82-2.69,6.55-2.97-1.87-3.18-4.42-8.44-5.53-6.39-1.34-17.08,1.95-19.32,6.23,16.27-.25,14.56,14.62,2.77,8.22-4.76-2.58-4.03-5.42-10.79-5.57-4.45-.1-9.46,1.45-13.51,3.76Z"/>
  <path class="st1" d="M1037.33,487.38l5.57-4.78c3.33-4.76,11.35-12.3,11.28-18.38s-9.1-7.44-13.07-4.17c-7.85,6.48-2.62,18.84-3.78,27.33Z"/>
  <path class="st1" d="M1123.82,499.42c-3.56-1.61-6.56-1.07-9.1.58h10.19c-.35-.22-.71-.41-1.09-.58ZM1236.92,443.11c-16.48,2.03-17.4,18.47-30.28,26.51-2.96,1.53-3.03,11.31-5.55,11.1-.84-.07-11.42-8.19-13.73-9.75-6.2-4.17-12.13-4.91-13.6-10.77-.2-.8-.32-1.71-.34-2.73-.05-1.75.19-3.85.77-6.42,3.72-16.54,13.88-8.12,22.34-9.54,1.32-.22,3.93-1.17,7.15-2.55,1.67-.71,3.5-1.54,5.4-2.44,9.65-4.56,21.04-10.91,21.68-13.35.25-.95-1.21-2.98-2.16-3.85-1.26-1.13-20.97-13.26-22.24-13.55-9.84-2.25-22.12,7.43-24.81,16.73-1.21,4.17.22,14.55-.29,15.3-.64.92-4.09,2.06-5.74,3.61-5.17,4.88-5.09,10.48-4.39,16.54.11.9.23,1.81.34,2.73.18,1.36.35,2.75.47,4.16l-12.07-2.53h-.03l-8.78-1.83c-.1-.13-.2-.27-.29-.42-3.8-5.83-1.57-22.5-3.07-29.37-1.82-8.29-8.49-27.32-18.85-26.49,19.36,14.94,13.45,36,18.86,55.93.09.32.18.65.27.97-3.2-.04-6.55.77-9.95,1.98h-.01c-14.89,5.25-30.55,17.91-36.8-1.74-.18-.56-.35-1.14-.51-1.75,1.77-.31,3.26-.77,4.49-1.38,12.74-6.21-1.12-26.98-.5-39-14.98,10.33-16.83,25.21-10.94,38.24.54,1.21,1.15,2.4,1.82,3.56,3.4,5.91,8.37,11.28,14.37,15.46-8.38,9.95-14.84,17.65-19.76,23.53h8.26c.11-.15.22-.31.33-.47,0,.15,0,.31,0,.47h4.47c-2.56-19.15,19.7-28.59,38.15-33.37,10.66-2.77,10.51,3.73,15.57,3.35,3.41-.26,6.22-2.49,10.35-2.62,8.83-.26,35.41,15.81,36.84,26.31l7.99,6.33h7.81c-.09-.13-.19-.25-.29-.38-2.62-3.36-14.42-14.19-14.92-16.09-1.53-5.81,9.89-19.71,14.7-21.73,1.27-.53,9.19,3.97,12.41,4.36,10.13,1.22,21.53-2.77,30.93-6.32,1.52-3.19-19.86-17.47-25.88-16.73ZM1318.85,495.18c-5.21-.38-18.05,2.94-24.83,4.82h32.92c-1.16-2.38-3.12-4.46-8.09-4.82ZM1366.96,414.2c-.14-2.97-4.31-22.33-5.25-23.05-4.44-3.38-15.02,9.74-16.86,13.88-4.18,9.4-2.77,23.84,6.97,29.32,5.3,2.98,5.96-3.39,7.57,6.02,2.61,15.26-4.41,26.32-10.61,39.58-3.98-3.3-6.88-7.44-10.76-11.15-2.13-2.03-6.39-3.22-7.72-5.29-2.27-3.53,1.99-8.73-5.6-15.15-1.99-1.68-32.72-14.59-33.37-12.91-.04,2.02,2.51,2.65,2.62,2.94l9,24.77c.28.76,6,5.8,7.25,6.5,10.59,5.93,18.73-3.65,20.3-3.18,1.39.41,14.59,16.56,15.75,19.04,1.88,4.04.4,8.31,1.99,12.6.24.66.55,1.29.89,1.88h7.93c-1.59-5.25-3.2-10.51-5.43-15.28.99-11.58,11.77-22.55,12.46-34.16.43-7.16-3.17-12.68-3.3-17.53-.05-1.87,6.58-10.18,6.17-18.83ZM1469.4,495.72c-3.04-3.31-7.16-2.57-9.76-4.27-1.95-1.28-12.33-9.58-13-10.79-2.19-3.94,1.18-10.1.52-14.26-1.74-11.07-15.4-13.07-23.72-16.63-4.72-2.02-7.96-7.48-13.3-4.56l10.76,29.58c.92,2.52,8.77,8.25,11.81,8.95,4.47,1.04,9.53-1.15,12.51.12,2.43,1.04,7.26,7.04,10.2,8.73-6.28.35-11.5,3.64-16.21,7.41h5.84c2.22-1.17,4.07-2.07,5.11-2.46,7.15-2.67,10.97-1.2,14.83,2.46h7.32c-.93-1.66-1.87-3.15-2.91-4.28ZM1491.83,500h1.17v-1.5c-.41.49-.79.99-1.17,1.5ZM1492.08,417.75c-5.31-1.21-4.92,6.33-7.08,10.41-5.55,10.5-14.06,19.24-7.02,32,1.64,2.97,4.87,4.29,6.05,6.29,2.17,3.66,1.14,16.18.99,21.12l-1.14,12.43h5.16c-.39-9.25-2.26-29.98-1.51-31.26.37-.63,3.35-1.57,5.47-4.08v-43.28c-.32-1.31-.63-2.52-.92-3.63Z"/>
  <path class="st1" d="M1094.46,365.29l10.98,4.61c7.51,5.68,23.63,13.34,26.56,22.76,3.01,9.7-10.34,16.02-18.1,12.94-15.33-6.09-13.42-27.78-19.44-40.31Z"/>
  <path class="st1" d="M991.91,477.44l-4.5-4.59s-.1-.02-.15-.02c-17.82-2.91-31.72-3.35-49.05,2.78-3.25,1.15-11.51,6.38-13,6.49-3.84.29-12.27-7.53-14.88-10.53-8.32-9.58-3.51-7.55-.84-16.58,3.36-11.33-2.77-28.31-10.58-36.84-7.97,9.44-12.03,20.4-7.43,32.52,3.02,7.96,6.52,7.67,10.18,12.44,1.91,2.5,2.58,5.98,5.44,9.46,4.7,5.73,9.31,9.21,16,12.08-4.01.32-12.21,8.6-18.71,15.35h7.5c.46-1.11.98-2.14,1.72-3.02,7.38-8.73,23.83-17.31,34.94-19.85-2.35,4.4-4.47,8.61-6.05,13.39-.73,2.21-1.47,5.56-2.17,9.48h3.23c1.39-6.86,3.34-13.6,4.46-15.63,9.91-17.99,29.89-7,45.54-5.25l-1.65-1.68ZM874.59,485.71c-1.04-2.22-7.35-19.23-7.16-20.29.14-.83,9.54-2.93,7.78-13.87-3.43-3.62-12.68-34.81-14.58-34.81-6.27.14-5.48,32.48-3.5,37.74,2.08,5.52,5.89,7.35,8.22,11.47,1.39,2.47,2.19,11.29,3.74,15.57,2.54,7.02,5.54,13.24,9.7,18.48h4.68c-3.85-4.71-7.03-10.32-8.88-14.29ZM818.96,499.19c-1.64-.38-1.73-1.93-3.57.81h6.63c-1.27-.36-2.32-.64-3.06-.81ZM805.06,439.5c-10.27-1.55-16.91-5.57-22.99,7-3.84,7.93-5.66,10.19-10.04,17.49-3.41,5.68-5,12.7-6.25,19.08-1.67-4.47-16.08-29.46-15.9-31.21.08-.79,2.74-3.13,3.46-6.69,2.58-12.65-12.79-32.17-20.42-41.61-5.34,1.1-1.86,7.8-2.14,12.41-.7,11.85-4.84,23.33,6.85,32.03,2.73,2.03,6.22,1.89,8.12,3.22,3.49,2.44,7.73,14.26,9.64,18.82l9.22,26.47c-7.57-1.87-14.34-10.15-20.07-12.59-4.13-1.75-7.57.63-10.65.15-2.3-.35-15.19-3.61-16.3-4.44-3.63-2.67-3.11-9.68-5.42-13.19-6.18-9.36-19.43-5.52-28.49-5.32-5.13.11-10.33-3.51-13.99,1.35l22.04,22.47c1.88,1.92,11.4,3.89,14.46,3.27,4.5-.91,8.19-5,11.44-5.07,2.63-.06,9.52,3.4,12.89,3.73-5.47,2.86-8.83,7.88-11.52,13.13h3.55c2.21-2.94,4.19-5.42,5.24-6.46,8.05-8.03,13.17-4.62,22.87-.28,5.29,2.37,9.05,4.56,11.84,6.74h8.46c-2.09-3.49-3.22-7.76-2.64-14.3.72-8.24,7.93-24.05,13.65-29.88,2.19-2.24,6.54.16,10.47-.39,7.51-1.05,15.15-7.93,19.75-13.73,3.54-4.46-6.65-2.12-7.13-2.2ZM629.99,486.4c-2.57-6.69-8.14-10.23-10.27-14.59-.81-1.68,1.79-11.99-2.17-19.69-1.36-2.65-13.17-18.55-14.32-18.81-5.44-1.24-9.64,15.08-9.61,19.61.09,10.29,7.35,22.85,18.49,23.8,6.06.52,4.02-5.55,9.38,2.35,4.65,6.86,6.3,13.75,6.8,20.93h3.38c.13-4.79-.09-9.46-1.68-13.6Z"/>
  <path class="st1" d="M1012.71,431.45l.63,11.89c-1.84,9.24-1.72,27.08-8.93,33.82-7.42,6.94-18.92-2.34-19.53-10.66-1.19-16.46,19.17-24.17,27.82-35.05Z"/>
  <path class="st1" d="M962.82,31.75c.91-25.54,11.57-22.82,30.18-28.39,3.29-.98,13.76-8.06,8.95.54-5.93,10.62-25.19,36.54-39.14,27.85Z"/>
  <path class="st1" d="M2.44,23.55c-.3-2.72-1.18-5.37-2.44-7.86v22.69c.83-4.86,3.01-9.58,2.44-14.83ZM493.22,0c1,1.35,1.84,2.7,2.43,4.02.73-1.35,1.36-2.7,1.89-4.02h-4.32ZM448.17,0h-3.64c2.77,5.16,5.35,10.62,7.62,13.38,5.39,6.55,20,20.46,28.84,15-17.76-3.31-24.76-15.88-32.82-28.38ZM419.04,22.35c.14-1.11,2.7-3.7,3.46-5.84,2.34-6.6-.18-11.51-3.5-16.51h-2.7c1.14,1.67,2.14,4.03,2.99,7.33,4.22,16.42-8.66,13.55-15.55,18.67-4.45,3.31-22.96,28.05-22.11,31.92.21.96,2.43,2.11,3.68,2.44,1.63.44,24.7,2.26,25.97,1.94,9.78-2.48,16.3-16.7,14.46-26.2-.82-4.27-6.82-12.85-6.7-13.75ZM382,0h-3.02c-.15,6.86-2.62,15.7-4.89,18.38-.89,1.06-9.99.66-13.03,1.78-9.58,3.52-17.91,12.27-24.65,19.71.09,3.53,25.64,6.51,30.65,3.11,13.75-9.32,7.08-24.37,14.88-37.4.81-1.14.51-3.34.06-5.58ZM318.45,73.16l-19.3-17.95c-.6-.55-7.98-2.43-9.42-2.48-12.12-.45-15.01,11.78-16.62,12.08-1.42.26-20.53-8.1-22.69-9.78-3.52-2.73-4.15-7.21-7.51-10.31-4.29-3.95-10.87-3.74-14.39-9.21,1.88-1.3,3.68.39,6.71-.18,4.22-.81,17.62-6.91,19.45-6.5,4.95,1.09,6.4,9.06,15.72,5.12,5.24-2.22,16.53-12.44,21.16-16.76,4.47-4.16-9.29-3.62-11.56-4.12-8.06-1.76-17.14-7.41-25-1.39-6.93,5.32-.96,11.6-3.47,13.88-3.24,2.93-22.5,6.83-26.84,5.41-10.84-10.44-21.02-22.13-32.98-30.97h-7.19c5.95,3.47,11.8,7.45,14.64,10.17,3.8,3.65,4.77,12.34,9.91,17.32,3.61,3.52,8.75,4.73,12.69,7.77,8.41,6.48,15.64,16.26,24.23,22.93,4.39,10.76-.2,25.44,4.47,36.09,2.88,6.57,8.6,9.84,10.93,14.1.89,1.64-1.23,12.06,3.08,19.57,1.49,2.59,14.01,17.92,15.17,18.13,5.5.99,8.94-15.51,8.69-20.03-.56-10.28-8.39-22.49-19.56-22.93-6.08-.24-3.76,5.73-9.48-1.91-9.28-12.39-8.07-25.44-8.59-40.07,5.05,1.13,9.52,3.49,14.66,5.02,2.82.84,7.15-.04,9.29,1.2,3.62,2.1,2.19,8.67,11.88,10.93,2.54.59,35.77-1.92,35.58-3.7-.88-1.82-3.43-1.22-3.66-1.43ZM174.25,96c-4.44,1.12-7.95,5.37-11.19,5.6-2.62.18-9.66-2.96-13.05-3.13,10.84-6.32,12.57-21.16,18.04-28.99,1.71-2.44,4.99-3.32,6.66-6.58,1.79-3.51-3.28-21.26-6.05-21.05-10.9,4.21-1.25,26.37-1.82,27.74-1.53,3.67-11.53,18.94-14.4,22.08-7.68,8.4-12.95,5.23-22.84,1.34-24.19-9.52-17.58-16.83-30.21-34.66-19.71-27.85-34.47-29.88-61.74-43.86-1.86-.96-3.88.03-1.13-2.52,22.01-4.8,44.06,9.93,65.33,1.7,6.59-2.55,16.61-10.81,21.32-12.01,4.54-1.16,12.58,1.69,20.67-1.11.51-.18.99-.36,1.46-.55h-30.76c1.16.53,1.83.97,1.87,1.28-5.38,2.62-10.18,6.4-15.73,8.73-22.39,9.42-44.72-9.04-66.8.46-1.96-1.27.26-2.6,1.4-3.72,1.5-1.46,4.66-4.17,7.94-6.75h-6.81c-3.59,3.33-7.06,6.92-10.09,10.12C17.71,7.42,8.82,5.19,0,2.74v5.31l23.68,6.96L1.05,47.94c-.49-1.05-.83-2.08-1.05-3.09v16.88c2.24-1.02,5.17-1.44,9.3-1,1.86.2,10.68,2.58,11.52,3.46.57.6-3.32,7.1,2.45,13.3,3.44,3.69,31.48,11.62,37.83,12.76,1.68.31,1.82,1.9,3.61-1.11-14.33-8.29-16.75-33.18-35.83-31.4-3.15.29-5.89,2.31-7.69,2.39-4.25.19-14.76-4.41-20.81-2.82,6.45-6.69,21.58-39.29,29.06-41.04,5.79-1.35,41.72,19.13,47.48,24.15,11.53,10.04,8.53,20.08,17.63,31.57,8.86,11.21,18.46,12.76,17.76,29.4-.18,4.36-2.07,10.93-4.63,17.04h0c-.6,1.47-1.24,2.89-1.91,4.26-1.83,3.76-3.84,7.07-5.72,9.18-2.08,2.33-6.53.14-10.43.87-7.46,1.39-14.77,8.62-19.1,14.62-3.33,4.63,6.74,1.82,7.22,1.87,10.33,1.08,17.16,4.79,22.65-8.05,3.37-7.89,5.09-10.31,8.91-17.36.1-.19.2-.38.31-.58,1.13-2.11,2.02-4.36,2.73-6.71h0c1.28-4.15,2.02-8.53,2.63-12.64.72,1.68,3.44,6.29,6.53,11.43,3.05,5.09,6.46,10.7,8.62,14.51.16.3.32.59.48.87h0c1.07,1.93,1.72,3.27,1.7,3.63-.02.38-.66,1.18-1.35,2.31-.72,1.17-1.53,2.7-1.81,4.53-.44,2.85.02,5.99,1.1,9.26h0c.66,2.01,1.55,4.06,2.61,6.11h0c4.94,9.65,13.47,19.45,18.62,25.25,5.28-1.34,1.5-7.88,1.56-12.48.16-11.88,3.76-23.54-8.32-31.69-2.82-1.9-6.3-1.6-8.26-2.84-1.36-.86-2.88-3.02-4.37-5.65,0-.01-.01-.02-.01-.03-.1-.17-.19-.35-.29-.52-.6-1.09-1.19-2.24-1.76-3.39h0c-1.65-3.38-3.13-6.78-4.07-8.76l-.24-.6-10.19-25.42c7.65,1.52,14.78,9.48,20.62,11.65,4.21,1.56,7.54-.98,10.63-.65,2.32.25,15.35,2.92,16.49,3.68,3.75,2.51,3.56,9.53,6.03,12.93,6.6,9.06,19.67,4.62,28.7,4,5.12-.35,10.49,3.03,13.91-1.99l-23.05-21.43c-1.96-1.83-11.56-3.36-14.6-2.6ZM2.44,23.55c-.3-2.72-1.18-5.37-2.44-7.86v22.69c.83-4.86,3.01-9.58,2.44-14.83ZM25.04,136.68c-2.34-5.42-6.22-7.07-8.74-11.08-1.51-2.4-2.71-11.18-4.46-15.37-3.14-7.56-6.78-14.13-11.84-19.43v5.77c2.57,3.44,4.72,6.98,6.16,9.72,1.14,2.17,8.22,18.87,8.08,19.93-.1.85-9.39,3.38-7.13,14.22,3.6,3.46,14.29,34.23,16.18,34.1,6.25-.43,3.97-32.69,1.75-37.86ZM2.44,23.55c-.3-2.72-1.18-5.37-2.44-7.86v22.69c.83-4.86,3.01-9.58,2.44-14.83Z"/>
  <path class="st1" d="M529.33,47.34l-11.87.9c-9.28-1.64-27.12-1.11-34.02-8.16-7.1-7.26,1.91-18.97,10.22-19.76,16.43-1.56,24.6,18.62,35.67,27.03Z"/>
  <path class="st1" d="M1005.46,0c-.15.3-.29.61-.43.91.51-.3,1.07-.61,1.67-.91h-1.24ZM1478.78,82.71c-3.89.75-7.23,4.42-10.03,3.02-7.29-3.67-19.23-16.3-22.58-23.86-6.75-15.22,1.6-20.18,5.74-33.86,3.37-11.13,0-18.62,1.98-28.01h-6.02c-2.03,4.88-3.85,10.47-5.47,17.09-5.2,21.23,3.62,25.6-15.39,43.33-7.77,7.25-11.52,12.13-21.73,7.13-3.83-1.87-18.73-12.41-21.5-15.25-1.04-1.07-.19-25.23-11.87-25.15-2.65.83-.86,19.2,2.09,21.8,2.75,2.43,6.13,2.04,8.61,3.69,7.96,5.27,15.01,18.44,27.42,20.34-3.09,1.41-8.49,6.91-11,7.7-3.1.98-7.92-1.69-12.46-1.1-3.1.41-11.47,5.35-12.63,7.77l-13.58,28.4c1.37.93,2.65,1.23,3.88,1.12,1.2-.08,2.36-.54,3.52-1.14h.01c2.01-1.05,4.01-2.51,6.26-3.23,8.63-2.74,22.42-3.4,25.23-14.25,1.06-4.08-1.7-10.53.87-14.24.78-1.14,11.92-8.39,13.99-9.47,2.75-1.44,6.78-.31,10.12-3.3,4.64-4.16,8.36-14.19,14.92-18.4l-.16,28.02c-.33,4.94-.53,17.5-3.04,20.93-1.37,1.88-4.72,2.87-6.64,5.67-8.24,12.02-.62,21.55,3.88,32.53,1.75,4.27.63,11.73,6.03,11.05,4.17-11.4,12.4-34.84,5.87-45.98-1.84-3.14-5.1-4.49-5.44-5.21-.73-1.59,4.82-29.91,4.95-34.68,3.25,5.64,7.03,11.77,12.09,16.04,6.5,5.49,8.96,7.04,15.15,13.3,8.76,8.86,13.67,5.09,21.15.78v-10.53c-4.72-1.84-9.82-2.9-14.22-2.05ZM1485.96,33.01c2.77,2.15,2.31.62,3.77-.28.78-.48,1.9-1.24,3.27-2.21V12.93c-1.41,7.17-2.7,14.61-7.04,20.08ZM1333.12,0c-6.8,11.81-11.62,25.08-17.33,37.58-3.52,2.92-22.87,6.36-26.95,4.82-3.17-1.2.08-9.23-8.32-11.64-9.52-2.72-15.9,5.87-22.75,10.46-1.93,1.3-14.92,5.84-9.25,8.07,5.9,2.32,20.16,7.7,25.84,7.83,10.11.25,8.54-7.7,12.75-10.53,1.55-1.04,16.25-.28,20.47-1.09,3.03-.57,4.09-2.8,6.31-2.29-1.26,6.38-7.46,8.6-10,13.85-1.99,4.12-.94,8.51-3.2,12.34-1.4,2.36-16.11,17.15-17.53,17.43-1.61.31-8.78-10.01-19.9-5.15-1.31.58-7.49,5.04-7.84,5.77l-11.37,23.77c-.14.29-2.74.66-2.89,2.68.48,1.73,32.32-8.13,34.46-9.61,8.18-5.65,4.44-11.24,7.05-14.53,1.53-1.93,5.88-2.7,8.2-4.51,4.22-3.32,7.51-7.15,11.8-10.05,4.87,13.79,10.79,25.49,6.7,40.42-2.52,9.21-2.55,2.81-8.12,5.26-10.22,4.5-13.03,18.73-9.79,28.5,1.43,4.3,10.68,18.38,15.43,15.45,1.01-.62,7.04-19.48,7.47-22.43,1.26-8.57-4.54-17.48-4.31-19.33.6-4.82,4.72-9.97,4.99-17.13.44-11.62-9.22-23.6-9.07-35.22,5.54-9.36,8.67-21.1,14.12-30.21,2.56-4.28,6.89-7.3,8.96-11.89,2.95-6.52.67-14.96,2.87-19.75,1.04-2.27,3.03-5.46,5.43-8.87h-4.23ZM1299.97,0c.13,2.02.18,3.45.1,3.71-1.85,6.02-9.96,4.01-10.25,10.12,8.5-2.08,13.33-5.66,13.59-13.83h-3.44ZM1215.13,86.85c-9-4.45-19.96-9.53-30.17-9.3-3.23.08-11.56,3.79-12.77,3.13-4.58-2.48-14.61-17.43-12.52-23.05.69-1.85,13.48-11.48,16.42-14.57,12.54-13.17,21.75-28.17,30.79-43.06h-3.78c-2.4,3.98-4.83,7.88-7.37,11.6-4.44,6.5-16.83,25.75-25.01,25.57-6.57-.16-15.46-7.26-17.08-13.75-1.26-5.02,1.94-4.93,3.72-8.86,4.41-9.72-11.91-8.62-8.24,3.36-5.06-.98-10.83-8.36-10.72-13.29.05-2.39,1.01-3.57,2.07-4.63h-8.64c1.33,1.99,2.65,4.3,4.57,8.68,4.15,9.54,7.21,7.72,13.01,12.99,2.18,1.97,4.31,9.3,8.11,12.5,4.51,3.79,9.71,6.53,15.52,4.95l-12.96,8.35c-2.46,10.32-30.47,23.72-39.23,22.6-4.1-.52-6.68-3.02-10.05-3.6-5-.88-5.48,5.6-15.82,1.81-20.86-7.63-46.28-22.09-30.27-46.91,2.65,6.72,7.15,15.56,15.96,12.56,10.3-3.5,11.97-23.21,15.85-33.93h-30.86c-2.04,2.39-3.56,5.26-4.36,8.85-.51,2.31,3.82,6.53,2.02,10.15-.88,1.79-2.32,2.04-4.15,4.13-2.39,2.72-3.15,5.95-3.42,8.26-4.65-8.32-9.02-14.95-12.31-19.66-3.56-5.1-6.51-8.9-8.99-11.73h-11.19c5.83,3.41,10.76,10.7,17.69,20.87,4.54,6.66,11.98,17.56,23.68,34.56-21.32,11.96-32.47,38.18-10.8,56.48.61-13.2,19.58-35.16-.04-40.58,9.77-26.21,29.65,1.62,47.19,3.09-7.82,19.56-3.51,41.58-24.57,54.77,10.23,1.84,18.71-16.45,21.33-24.53,2.23-6.86,1.54-24.35,6.25-29.32l21.2-2.31c-1.58,8.59-5.11,16.33,1.28,23.67,1.49,1.71,4.82,3.17,5.36,4.15.44.8-1.99,10.98-1.19,15.26,1.77,9.52,13.05,20.34,23.07,19.06,1.29-.16,22.08-10.32,23.44-11.32,1.04-.77,2.68-2.65,2.53-3.63-.63-3.91-26.92-20.14-32.28-21.58-8.29-2.23-19.21,5.16-21.31-11.67-1.89-15.18,6-13.66,15.04-18.54,2.46-1.32,13.75-8.36,14.62-8.36,2.53.03,1.65,9.77,4.44,11.58,12.04,9.26,11.36,25.71,27.56,29.33,5.91,1.33,28.59-10.81,27.38-14.13Z"/>
  <path class="st1" d="M1038.39,164.57l11.37-3.52c8.03-4.92,24.82-10.98,28.65-20.07s-8.74-16.95-16.76-14.63c-15.85,4.57-16.05,26.34-23.27,38.23Z"/>
  <path class="st1" d="M988.88,21.6c-8.23,1.58-17.43,5.44-25.8,6-7.17.48-13.72-1.45-18.54-9.28-1.39-2.25-4.16-10.62-5.93-18.32h-3.17c1.07,5.2,2.24,9.71,3.29,12.44,1.81,4.71,4.13,8.81,6.69,13.08-11.22-1.99-28.06-9.77-35.86-18.12-1.8-1.93-2.51-4.73-3.91-7.4h-10.58c6.83,6.3,19.44,19.09,24.57,19.26-6.54,3.18-10.98,6.89-15.4,12.84-2.68,3.61-3.18,7.12-4.98,9.71-3.41,4.94-6.92,4.82-9.55,12.92-4,12.33.58,23.07,9,32.12,7.39-8.9,12.68-26.16,8.78-37.32-3.11-8.88-7.81-6.62.03-16.6,2.46-3.12,10.5-11.34,14.35-11.23,1.49.04,9.99,4.85,13.3,5.84,9.97,2.99,18.74,3.94,27.68,3.5,5.89-.28,11.85-1.16,18.27-2.44h.01c1.1-.22,2.2-.45,3.32-.69l5.83-6.56c-.46.07-.93.16-1.4.25ZM884.57,0h-4.61c-6.99,6.53-11.04,15-14.12,25.01-1.34,4.34-1.7,13.19-2.98,15.73-2.13,4.22-5.84,6.23-7.65,11.85-1.72,5.36-.94,37.69,5.33,37.53,1.89-.05,9.62-31.69,12.88-35.48,1.22-11.01-8.27-12.65-8.45-13.48-.24-1.05,5.23-18.34,6.16-20.61,2.4-5.88,7.43-15.35,13.44-20.55ZM819.04,0c-2.13,3.52-4.59,6.72-7.83,9.02,2.07,2.83,2.05,1.24,3.7.78,3.88-1.08,15.88-5.59,25.12-9.8h-20.99ZM810.94,67.54c-4.87-5.57-12.84-12.07-20.39-12.75-3.95-.35-8.17,2.25-10.47.12-6-5.54-13.97-20.99-15.1-29.18-1.89-13.8,4.38-17.77,11.03-25.73h-9.83c-2.46,6.95-5.54,12.11-19.2,19.04-9.47,4.81-14.43,8.46-22.86.83-2.97-2.69-13.22-15.43-15.99-19.87h-1.05c5.8,7.48,9.08,21.31,20.1,26.4-3.36.49-10.06,4.29-12.7,4.35-3.25.09-7.14-3.81-11.67-4.5-3.09-.47-12.5,1.96-14.28,3.96l-20.92,23.52c3.88,4.68,8.91.81,14.04.67,9.05-.24,22.48,2.94,28.19-6.7,2.14-3.63,1.28-10.59,4.77-13.45,1.07-.87,13.79-4.75,16.07-5.22,3.05-.63,6.6,1.58,10.64-.37,5.61-2.71,11.96-11.31,19.43-13.55l-7.91,26.89c-1.69,4.65-5.35,16.66-8.72,19.27-1.84,1.42-5.33,1.45-7.95,3.61-11.25,9.26-6.57,20.52-5.28,32.33.5,4.58-2.65,11.44,2.73,12.28,7.16-9.8,21.57-30.04,18.38-42.56-.9-3.51-3.66-5.72-3.79-6.51-.26-1.73,12.92-27.4,14.37-31.94,1.56,6.31,3.49,13.25,7.17,18.75,4.72,7.08,6.66,9.25,10.88,16.98,6.68,12.27,13.12,7.93,23.3,5.87.48-.09,10.77,1.75,7.01-2.54ZM626.79,31.75c3.15-9.57-.91-21.5.14-31.75h-3.44c.91,14.11,3.01,26.65-4.84,39.49-4.97,8.15-3.23,1.99-9.25,2.8-11.08,1.5-17.72,14.39-17.31,24.68.18,4.53,5.18,20.62,10.55,19.12,1.14-.32,12.16-16.77,13.39-19.49,3.58-7.88.48-18.05,1.21-19.77,1.92-4.46,7.3-8.26,9.55-15.08ZM610.93,0c-4.57,2.49-8.82,4.62-9.48,4.56-.69-.06-1.81-2.21-3.77-4.56h-25.3l-15.28,17.17c-.21.24-2.81-.12-3.51,1.77-.02,1.8,33.3,1.15,35.77.32,9.43-3.17,7.38-9.57,10.8-12.01,2-1.44,6.4-.97,9.13-2.07,3.88-1.57,7.3-3.6,10.95-5.18h-9.31Z"/>
  <path class="st1" d="M26.33,202.24c-9-1.84-17.75-4.44-26.33-7.57v-4.89c7.51,2.51,15.66,4.77,24.11,6.54,1.49.31,2.98.61,4.49.89.18.03.35.06.53.1,3.91.71,7.86,1.31,11.83,1.78,30.11,3.51,61.03-.85,78.35-23.36,6.36-8.26,9.6-16.6,10.93-25.29.69-4.49.88-9.08.71-13.8-.06-1.96-.18-3.93-.35-5.94-.03-.35-.06-.7-.1-1.05-.13-1.47-.29-2.96-.48-4.46-.17-1.5-.37-3.02-.58-4.56.98,2.66,1.8,5.26,2.46,7.81.06.22.12.44.17.66,2.51,10.03,2.61,19.2.78,27.44-6.89,31.02-41.14,48.82-77.4,48.75-4.42-.01-8.77-.23-13.05-.64-5.46-.51-10.81-1.33-16.07-2.41Z"/>
  <path class="st1" d="M193.62,347.83c2.66,14.91,11.65,25.28,25.34,29.07,2.34.65,4.83,1.11,7.44,1.36-.34,1.77-3.73,1.12-4.9.88-.78-.16-1.55-.33-2.29-.51-18.27-4.41-23.93-14.84-29.61-32.23-39.24-3.71-73.94-24.31-105.91-45.81,8.29,23.58,22.28,48.81,48.84,53.53,1.14.21,2.31.37,3.5.5-.39.92-1.86,1.06-3.4.93-1.5-.12-3.07-.5-3.78-.67-29.11-6.95-38.69-34-49.98-58.17l-52.74-40.16c-3.47-2.09-1.29,3.99-1.38,5.61-.51,8.57-4.23,21.01,3.44,26.54.36.27.74.51,1.15.74.43.24.88.46,1.37.66.26.11.54.21.82.31-1.25,2.39-3.85.9-5.69-.74-.73-.66-1.35-1.34-1.71-1.8-7.87-10.08,2.64-25.73-5.84-37.03-2.44-3.25-4.41-5.2-18.29-11.55v-14.42c9.76,7.26,19.36,14.21,30.94,20.41,5.6,3,11.42,5.52,16.81,8.9,5.7,3.56,15.55,14.02,19.4,15.44,5.48,2.02,29.38,1.28,34.21-1.96,7.61-5.09,2.2-15.55-4.46-12.43-3.19,1.5-2.96,5.03-5.58,5.26,3.56-13.77,19.35-8.59,15.77,5.02,7.32-3.61,14.55-7.29,20.9-12.49l16.16-16.92c-11.31,22.03-34.02,37.01-58.68,38.61-5.05.33-9.23-.46-13.99-.56-1.21-.03-2.72-.63-2.87.99,6.03,9.08,34.88,34.34,44.88,33,6.84-.93,8.13-12.69,3.73-17.57-2.17-2.4-5.45-2.32-6.75-5.3,15.81,1.71,17.87,20.74,4.05,27.69,23.27,13.35,47.37,25.63,74.15,30.07-.45-11.07-12.48-16.86-22.57-16.26-3.12.18-5.63,1.53-8.48,2.49-3.49,1.17-2.57-.3-.8-1.55,10.38-7.33,26.39-1.83,32.8,8.49,2.68,4.33-.62,6.24,6.79,7.72,13.74,2.74,43.78-1.88,57.14-6.72,38.92-14.1,63.33-57.46,43.88-96.77-5.37-10.85-32.99-39.61-35.26-14.02-.65,7.26,4.76,9.32,10.4,10.57,1.68.38,3.38.68,4.95,1.03-2.39,1.07-4.66,1.55-6.75,1.56-13.16.05-19.15-18.78-4.64-26.43-19.58-7.98-42.3-3.21-56.49,12.62-1.04,1.16-6.9,8.44-7.08,8.99-1.46,4.58-3.2,9.36-4.64,14.05h0c-.49,1.58-.93,3.13-1.32,4.66-.2.81,1.49,6-1.66,5.26.1-2.81.34-5.5.72-8.09,6.9-47.47,58.93-58.51,90.68-34.21,3.48,2.66,6.71,5.75,9.62,9.26,6.03,7.28,10.65,16.39,13.08,27.31,13.39,60.23-38.78,93.25-91.97,94.9-3.51.11-22.98-1.28-23.45-.06Z"/>
  <path class="st1" d="M73.37,167.19c-15.38,5.8-19.33,27.33-33.58,32.36-3.31,1.17-7.27.48-10.41,2.55l-.26-5.22-4.01,2.57c-10.94-29.97,26.53-37.03,48.27-32.26Z"/>
  <path class="st1" d="M241.17,263.16c-10.94,10.52-36.69,16.37-45.28.43-2.62-4.86-3.04-14.67,3.97-15.26,18.13-1.53,23.49,15.4,41.31,14.82Z"/>
  <path class="st1" d="M28.84,290.82l3.64-1.4c11.5,15.62-5.3,25.4-10.53,39.15-2.81-.37-1.82-.73-2.13-2.33-1.04-5.41-3.51-22.61-2.35-27.13s6.44-9.17,10.75-10.41c2.4-.69.8.85.62,2.13Z"/>
  <path class="st1" d="M292.85,193.95c.19-.79-1.52-3.92.71-4.28,6.06,8.5,15.32,23.23,7.23,32.89-1.73,2.07-8.52,6.06-7.55.48-2.72,6.35-7.51-6.77-7.1-8.04,2.17-6.81,5.05-14.22,6.71-21.05Z"/>
  <path class="st1" d="M41.97,229.31c-1.57-6.04-24.68-25.36-12.21-30.25,15.3-5.99,18.05,21.25,12.21,30.25Z"/>
  <path class="st1" d="M145.33,236.47c.28-4.06,11.49-10.55,14.43-10.84,6.37-.62-8.32,8.05-9.61,7.88,3.6,2.21,11.27-2.57,15.09-4.82,4.49-2.64,4.56-7.11,11.45-4.1,7.06,3.08,4.21,7.89-.95,11.18-7.8,4.98-22.12,4.07-30.41.69Z"/>
  <path class="st1" d="M140.17,228.39v-14.16c2.28,3.33,5.22,18.11.85,19.59-4.03,1.36-26.27-27.52-13.48-32.77,2.82-1.16,7.2,2.42,8.26,4.7,1.88,4.05-1.96,18.03,4.38,22.64Z"/>
  <path class="st1" d="M283.91,266.46c-3.97-7.33-16.52-15.27-13.99-24.53,3.11-11.35,12.7-5.25,14.99,3.02.81,2.93.49,20.45-1.01,21.51Z"/>
  <path class="st1" d="M103.06,122.52c5.52-9.07,32.3-11.03,30.12,2.59s-22.96-3.85-30.12-2.59Z"/>
  <path class="st1" d="M164.25,257.98c1.34,2.37-1.07,1.87-2.41,1.92-7.71.33-19.72-2.9-20.17-12.32-.17-3.57,1.61-8.49,5.85-7.4,7.77,1.99,7.94,9.64,12.05,14.84,1.32,1.67,4.55,2.71,4.68,2.95Z"/>
  <path class="st1" d="M160.01,348.09c-4.64,2.55-12.93,11.08-17.9,11.65-6.07.69-12.06-2.25-8.56-8.84,4.31-8.13,19.29-3.6,26.47-2.81Z"/>
  <path class="st1" d="M138.69,236.99c-2.24,6.98-9.87,9.28-16.05,5.91-2.19-1.2-11.44-9.15-5.52-9,8.1.21,14.81-2.85,21.57,3.09Z"/>
  <path class="st1" d="M242.25,373c-3.97,3.74-20.45,16.11-23.07,5.53-2.58-10.43,17.9-7.41,23.07-5.53Z"/>
  <path class="st1" d="M146.66,220.16c-2.64,1.67-1.72-1.67-1.91-2.47-.53-2.2-3.32-12.22-3.24-12.88.1-.9,3.33-5.39,4.14-6,4.29-3.25,9.75,3.66,8.85,7.92-.16.76-7.18,13.01-7.83,13.42Z"/>
  <path class="st1" d="M170.77,208.69c1.06,1.25-.81,9.05-2.58,10.6-1.13.99-6.97,1.74-9.31,2.76-2.12.93-2.85,3.45-4.75,3.06,1.99-4.34,2.4-11.4,5.43-14.98,1.99-2.35,8.95-4.1,11.22-1.44Z"/>
  <path class="st1" d="M1493,189.78v4.89c-8.58,3.13-17.33,5.73-26.33,7.57-5.26,1.08-10.61,1.9-16.07,2.41-4.28.41-8.63.63-13.05.64-46.11.09-88.97-28.72-76.45-76.85.66-2.55,1.48-5.15,2.46-7.81-.43,3.07-.79,6.08-1.06,9.02-1.54,16.65-.04,31.48,11.19,46.08,17.32,22.51,48.24,26.87,78.35,23.36,3.97-.47,7.92-1.07,11.83-1.78.18-.04.35-.07.53-.1,1.51-.28,3-.58,4.49-.89,8.45-1.77,16.6-4.03,24.11-6.54Z"/>
  <path class="st1" d="M1493,224.87v14.42c-13.88,6.35-15.85,8.3-18.29,11.55-8.48,11.3,2.03,26.95-5.84,37.03-.36.46-.98,1.14-1.71,1.8-1.84,1.64-4.44,3.13-5.69.74.28-.1.56-.2.82-.31.49-.2.94-.42,1.37-.66.41-.23.79-.47,1.15-.74,7.67-5.53,3.95-17.97,3.44-26.54-.09-1.62,2.09-7.7-1.38-5.61l-52.74,40.16c-11.29,24.17-20.87,51.22-49.98,58.17-.71.17-2.28.55-3.78.67-1.54.13-3.01-.01-3.4-.93,1.19-.13,2.36-.29,3.5-.5,26.56-4.72,40.55-29.95,48.84-53.53-31.97,21.5-66.67,42.1-105.91,45.81-5.68,17.39-11.34,27.82-29.61,32.23-.74.18-1.51.35-2.29.51-1.17.24-4.56.89-4.9-.88,2.61-.25,5.1-.71,7.44-1.36,13.69-3.79,22.68-14.16,25.34-29.07-.47-1.22-19.94.17-23.45.06-53.19-1.65-105.36-34.67-91.97-94.9,2.43-10.92,7.05-20.03,13.08-27.31,2.91-3.51,6.14-6.6,9.62-9.26,31.75-24.3,83.78-13.26,90.68,34.21.38,2.59.62,5.28.72,8.09-3.15.74-1.46-4.45-1.66-5.26-.39-1.53-.83-3.08-1.32-4.65h0c-1.44-4.7-3.18-9.48-4.64-14.06-.18-.55-6.04-7.83-7.08-8.99-14.19-15.83-36.91-20.6-56.49-12.62,14.51,7.65,8.52,26.48-4.64,26.43-2.09-.01-4.36-.49-6.75-1.56,1.57-.35,3.27-.65,4.95-1.03,5.64-1.25,11.05-3.31,10.4-10.57-2.27-25.59-29.89,3.17-35.26,14.02-19.45,39.31,4.96,82.67,43.88,96.77,13.36,4.84,43.4,9.46,57.14,6.72,7.41-1.48,4.11-3.39,6.79-7.72,6.41-10.32,22.42-15.82,32.8-8.49,1.77,1.25,2.69,2.72-.8,1.55-2.85-.96-5.36-2.31-8.48-2.49-10.09-.6-22.12,5.19-22.57,16.26,26.78-4.44,50.88-16.72,74.15-30.07-13.82-6.95-11.76-25.98,4.05-27.69-1.3,2.98-4.58,2.9-6.75,5.3-4.4,4.88-3.11,16.64,3.73,17.57,10,1.34,38.85-23.92,44.88-33-.15-1.62-1.66-1.02-2.87-.99-4.76.1-8.94.89-13.99.56-24.66-1.6-47.37-16.58-58.68-38.61l16.16,16.92c6.35,5.2,13.58,8.88,20.9,12.49-3.58-13.61,12.21-18.79,15.77-5.02-2.62-.23-2.39-3.76-5.58-5.26-6.66-3.12-12.07,7.34-4.46,12.43,4.83,3.24,28.73,3.98,34.21,1.96,3.85-1.42,13.7-11.88,19.4-15.44,5.39-3.38,11.21-5.9,16.81-8.9,11.58-6.2,21.18-13.15,30.94-20.41Z"/>
  <path class="st1" d="M1419.63,167.19c15.38,5.8,19.33,27.33,33.58,32.36,3.31,1.17,7.27.48,10.41,2.55l.26-5.22,4.01,2.57c10.94-29.97-26.53-37.03-48.27-32.26Z"/>
  <path class="st1" d="M1251.83,263.16c10.94,10.52,36.69,16.37,45.28.43,2.62-4.86,3.04-14.67-3.97-15.26-18.13-1.53-23.49,15.4-41.31,14.82Z"/>
  <path class="st1" d="M1464.16,290.82l-3.64-1.4c-11.5,15.62,5.3,25.4,10.53,39.15,2.81-.37,1.82-.73,2.13-2.33,1.04-5.41,3.51-22.61,2.35-27.13-1.16-4.5-6.44-9.17-10.75-10.41-2.4-.69-.8.85-.62,2.13Z"/>
  <path class="st1" d="M1200.15,193.95c-.19-.79,1.52-3.92-.71-4.28-6.06,8.5-15.32,23.23-7.23,32.89,1.73,2.07,8.52,6.06,7.55.48,2.72,6.35,7.51-6.77,7.1-8.04-2.17-6.81-5.05-14.22-6.71-21.05Z"/>
  <path class="st1" d="M1451.03,229.31c1.57-6.04,24.68-25.36,12.21-30.25-15.3-5.99-18.05,21.25-12.21,30.25Z"/>
  <path class="st1" d="M1347.67,236.47c-.28-4.06-11.49-10.55-14.43-10.84-6.37-.62,8.32,8.05,9.61,7.88-3.6,2.21-11.27-2.57-15.09-4.82-4.49-2.64-4.56-7.11-11.45-4.1-7.06,3.08-4.21,7.89.95,11.18,7.8,4.98,22.12,4.07,30.41.69Z"/>
  <path class="st1" d="M1352.83,228.39v-14.16c-2.28,3.33-5.22,18.11-.85,19.59,4.03,1.36,26.27-27.52,13.48-32.77-2.82-1.16-7.2,2.42-8.26,4.7-1.88,4.05,1.96,18.03-4.38,22.64Z"/>
  <path class="st1" d="M1209.09,266.46c3.97-7.33,16.52-15.27,13.99-24.53-3.11-11.35-12.7-5.25-14.99,3.02-.81,2.93-.49,20.45,1.01,21.51Z"/>
  <path class="st1" d="M1389.94,122.52c-5.52-9.07-32.3-11.03-30.12,2.59s22.96-3.85,30.12-2.59Z"/>
  <path class="st1" d="M1328.75,257.98c-1.34,2.37,1.07,1.87,2.41,1.92,7.71.33,19.72-2.9,20.17-12.32.17-3.57-1.61-8.49-5.85-7.4-7.77,1.99-7.94,9.64-12.05,14.84-1.32,1.67-4.55,2.71-4.68,2.95Z"/>
  <path class="st1" d="M1332.99,348.09c4.64,2.55,12.93,11.08,17.9,11.65,6.07.69,12.06-2.25,8.56-8.84-4.31-8.13-19.29-3.6-26.47-2.81Z"/>
  <path class="st1" d="M1354.31,236.99c2.24,6.98,9.87,9.28,16.05,5.91,2.19-1.2,11.44-9.15,5.52-9-8.1.21-14.81-2.85-21.57,3.09Z"/>
  <path class="st1" d="M1250.75,373c3.97,3.74,20.45,16.11,23.07,5.53,2.58-10.43-17.9-7.41-23.07-5.53Z"/>
  <path class="st1" d="M1346.34,220.16c2.64,1.67,1.72-1.67,1.91-2.47.53-2.2,3.32-12.22,3.24-12.88-.1-.9-3.33-5.39-4.14-6-4.29-3.25-9.75,3.66-8.85,7.92.16.76,7.18,13.01,7.83,13.42Z"/>
  <path class="st1" d="M1322.23,208.69c-1.06,1.25.81,9.05,2.58,10.6,1.13.99,6.97,1.74,9.31,2.76,2.12.93,2.85,3.45,4.75,3.06-1.99-4.34-2.4-11.4-5.43-14.98-1.99-2.35-8.95-4.1-11.22-1.44Z"/>
</svg>